<svg width="512" height="512" viewBox="0 0 512 512" fill="none" xmlns="http://www.w3.org/2000/svg">
<g clip-path="url(#clip0)">
<path d="M255.829 512C254.144 512 252.437 511.595 250.901 510.784L5.73867 382.784C2.21867 380.95 0 377.302 0 373.334V133.334C0 129.643 1.92 126.208 5.056 124.267C8.192 122.326 12.1387 122.155 15.424 123.798L260.587 246.464C264.192 248.278 266.475 251.968 266.475 256V501.334C266.475 505.067 264.533 508.523 261.333 510.464C259.669 511.488 257.749 512 255.829 512ZM21.3333 366.87L245.163 483.734V262.592L21.3333 150.592V366.87Z" fill="white"/>
<path d="M256.171 512C254.251 512 252.331 511.488 250.645 510.464C247.467 508.522 245.504 505.066 245.504 501.333V256C245.504 251.968 247.787 248.277 251.392 246.464L496.555 123.797C499.819 122.133 503.787 122.304 506.923 124.266C510.08 126.208 512 129.642 512 133.333V373.333C512 377.301 509.781 380.949 506.261 382.784L261.099 510.784C259.563 511.594 257.856 512 256.171 512V512ZM266.837 262.592V483.733L490.667 366.869V150.592L266.837 262.592ZM501.333 373.333H501.547H501.333Z" fill="white"/>
<path d="M10.6664 144C6.74104 144 2.98638 141.845 1.10904 138.112C-1.53629 132.843 0.618377 126.443 5.88771 123.797L251.392 1.13074C254.4 -0.362591 257.941 -0.362591 260.928 1.13074L506.09 123.797C511.36 126.443 513.493 132.843 510.869 138.112C508.224 143.381 501.845 145.493 496.554 142.891L256.17 22.5921L15.445 142.869C13.909 143.637 12.2877 144 10.6664 144V144Z" fill="white"/>
<path d="M384 320C378.112 320 373.333 315.221 373.333 309.333V198.592L134.058 78.8692C128.789 76.2452 126.656 69.8239 129.301 64.5545C131.946 59.2852 138.346 57.1732 143.616 59.7759L388.778 182.443C392.384 184.277 394.666 187.968 394.666 192V309.333C394.666 315.221 389.888 320 384 320V320Z" fill="white"/>
</g>
<defs>
<clipPath id="clip0">
<rect width="512" height="512" fill="white"/>
</clipPath>
</defs>
</svg>
