<svg width="477" height="477" viewBox="0 0 477 477" fill="none" xmlns="http://www.w3.org/2000/svg">
<g clip-path="url(#clip0)">
<path d="M461.776 209.408L249.568 4.52048C243.386 -1.50552 233.526 -1.50552 227.344 4.52048L15.1439 209.4C12.0199 212.415 10.2559 216.57 10.2559 220.912C10.2559 229.749 17.4199 236.912 26.2559 236.912H54.4559V460.912C54.4559 469.749 61.6189 476.912 70.4559 476.912H182.456C191.293 476.912 198.456 469.749 198.456 460.912V332.912H278.456V460.912C278.456 469.749 285.619 476.912 294.456 476.912H406.456C415.293 476.912 422.456 469.749 422.456 460.912V236.912H450.656C454.994 236.912 459.145 235.151 462.16 232.032C468.301 225.678 468.129 215.549 461.776 209.408ZM422.456 220.912C413.619 220.912 406.456 228.075 406.456 236.912V460.912H294.456V332.912C294.456 324.075 287.293 316.912 278.456 316.912H198.456C189.619 316.912 182.456 324.075 182.456 332.912V460.912H70.4559V236.912C70.4559 228.075 63.2929 220.912 54.4559 220.912H26.2559L238.456 16.0325L450.736 220.912H422.456V220.912Z" fill="white"/>
</g>
<defs>
<clipPath id="clip0">
<rect width="476.912" height="476.912" fill="white"/>
</clipPath>
</defs>
</svg>
