<svg width="512" height="512" viewBox="0 0 512 512" fill="none" xmlns="http://www.w3.org/2000/svg">
<g clip-path="url(#clip0)">
<path d="M31.4327 512H374.277C385.587 512 394.787 502.799 394.787 491.491V482.613H426.378V492.216C426.378 503.126 435.254 512.001 446.163 512.001H462.243C473.152 512.001 482.028 503.126 482.028 492.216V482.525C492.514 481.629 501.077 472.544 501.077 461.871V418.163C501.077 413.179 499.205 408.543 496.148 404.92C499.205 401.297 501.077 396.662 501.077 391.678V347.968C501.077 342.984 499.205 338.348 496.147 334.725C499.205 331.102 501.077 326.466 501.077 321.482V277.774C501.077 266.53 491.578 257.031 480.334 257.031H404.787C400.644 257.031 397.287 260.389 397.287 264.531C397.287 268.673 400.644 272.031 404.787 272.031H480.334C483.394 272.031 486.077 274.715 486.077 277.774V321.482C486.077 324.541 483.393 327.225 480.334 327.225H289.092C286.032 327.225 283.349 324.541 283.349 321.482C283.349 305.591 283.349 293.559 283.349 277.774C283.349 274.714 286.033 272.031 289.092 272.031H369.787C373.93 272.031 377.287 268.673 377.287 264.531C377.287 260.389 373.93 257.031 369.787 257.031H289.092C278.669 257.031 269.76 265.197 268.512 275.345C235.976 262.744 263.639 273.458 250.268 268.28L250.257 248.378C267.245 235.765 278.977 216.476 281.574 194.427C299.989 192.151 315.59 177.497 315.59 159.492C315.59 147.026 309.224 135.14 299.597 128.312C300.563 125.895 301.109 123.267 301.109 120.51V105.809C301.109 101.667 297.752 98.3094 293.609 98.3094C289.466 98.3094 286.109 101.667 286.109 105.809V120.511C286.109 122.247 285.388 123.962 283.847 125.233C281.651 127.034 279.046 126.794 276.11 126.197C261.637 123.056 261.843 109.187 261.413 106.663C260.831 103.251 258.291 100.441 254.839 99.5774C250.877 98.5874 246.806 100.421 244.906 103.979C237.44 117.944 222.981 126.62 207.172 126.62C198.023 126.62 130.743 126.62 121.306 126.62C114.011 126.62 107.637 120.684 107.637 112.951V57.7747C107.637 34.1888 126.825 14.9999 150.412 14.9999H226.067C243.636 14.9999 246.608 22.7589 248.298 31.4038C250.297 41.6268 259.87 48.7137 270.586 47.8907C278.105 47.3047 286.107 53.8327 286.107 62.9326V70.8096C286.107 74.9516 289.464 78.3095 293.607 78.3095C297.75 78.3095 301.107 74.9516 301.107 70.8096V62.9326C301.107 44.8517 285.429 31.7068 269.435 32.9348C266.262 33.1798 263.566 31.3238 263.018 28.5248C259.269 9.33094 247.182 0 226.069 0H150.414C118.557 0 92.6394 25.9178 92.6394 57.7747V112.95C92.6394 120.689 95.7273 127.717 100.729 132.88C93.6843 139.911 89.2524 149.721 89.2524 159.492C89.2524 177.468 104.816 192.148 123.262 194.427C125.26 211.554 132.76 227.461 144.918 239.949C148.151 243.27 151.667 246.248 155.398 248.911L155.399 268.224C155.019 268.427 55.1546 307.12 54.7536 307.276C54.7056 307.295 54.6576 307.314 54.6096 307.333C33.5697 315.992 10.9238 340.805 10.9238 374.821V491.491C10.9238 502.8 20.1238 512 31.4327 512V512ZM282.137 141.511C284.688 141.253 287.311 140.419 289.242 139.473C295.884 143.174 300.59 151.222 300.59 159.492C300.59 168.789 292.307 176.87 282.137 179.121V141.511ZM122.703 179.122C112.411 176.846 104.251 168.689 104.251 159.493C104.251 152.476 108.533 144.898 114.541 140.806C118.242 141.705 121.013 141.62 122.703 141.62V179.122ZM328.048 492.215C328.048 494.809 325.857 497 323.263 497H307.183C304.589 497 302.398 494.809 302.398 492.215V482.612H328.048V492.215ZM379.787 491.491C379.787 494.529 377.315 497 374.277 497H342.438C342.822 495.465 343.048 493.867 343.048 492.215V482.612H379.787V491.491ZM467.028 492.215C467.028 494.809 464.837 497 462.243 497H446.163C443.569 497 441.378 494.809 441.378 492.215V482.612H467.028V492.215ZM283.348 347.968C283.348 344.909 286.032 342.225 289.091 342.225H480.333C483.393 342.225 486.076 344.909 486.076 347.968V391.677C486.076 394.736 483.392 397.419 480.333 397.419H289.092C286.033 397.419 283.349 394.736 283.349 391.676V347.968H283.348ZM283.348 418.162C283.348 415.103 286.032 412.419 289.091 412.419H480.333C483.393 412.419 486.076 415.103 486.076 418.162V461.87C486.076 464.929 483.392 467.613 480.333 467.613C473.597 467.613 297.648 467.613 289.091 467.613C286.032 467.613 283.348 464.931 283.348 461.871V418.162ZM251.231 284.738L268.348 291.367V294.999L240.035 325.832L225.638 312.61L251.231 284.738ZM212.616 304.651H193.263C192.642 303.917 195.819 307.397 167.79 276.872C169.518 274.518 170.398 271.708 170.398 268.447V257.311C180.964 261.766 192.367 263.857 203.451 263.857C214.773 263.857 225.707 261.368 235.264 257.13L235.27 268.513C235.28 271.646 236.26 274.581 237.975 276.998C209.985 307.48 213.25 303.904 212.616 304.651V304.651ZM212.715 320.998V366.716H193.167V320.997C193.415 320.71 193.911 320.066 194.182 319.651H211.699C211.884 319.937 212.396 320.63 212.715 320.998V320.998ZM137.703 185.171V141.619H207.174C223.994 141.619 239.319 134.369 249.89 122.744C253.416 129.993 259.492 135.769 266.935 138.941C267.003 138.97 267.07 139.003 267.138 139.032V185.172C267.138 220.293 238.536 248.859 203.451 248.859C164.096 248.858 137.703 218.334 137.703 185.171V185.171ZM154.578 284.662L180.243 312.612L165.845 325.833L135.007 292.25C147.549 287.387 144.318 288.64 154.578 284.662V284.662ZM25.9237 374.821C25.9237 345.916 46.4236 326.957 60.2485 321.233L119.988 298.072L156.437 337.766C161.141 342.891 169.093 343.215 174.2 338.524L178.167 334.882V366.981C178.167 375.106 184.776 381.716 192.901 381.716H212.979C221.104 381.716 227.714 375.106 227.714 366.981V334.883L231.68 338.525C236.793 343.221 244.744 342.885 249.443 337.767L268.348 317.178V321.484C268.348 326.369 270.243 331.147 273.267 334.727C270.315 338.222 268.348 343.062 268.348 347.97V391.678V391.682C268.348 396.558 270.247 401.326 273.267 404.92C270.265 408.474 268.348 413.314 268.348 418.163V461.871C268.348 472.544 276.901 481.627 287.397 482.525V492.216C287.397 493.869 287.623 495.466 288.007 497.001H80.3984V383.834C80.3984 379.692 77.0414 376.334 72.8985 376.334C68.7555 376.334 65.3985 379.692 65.3985 383.834V497H31.4327C28.3947 497 25.9227 494.528 25.9227 491.491V374.821H25.9237Z" fill="white"/>
<path d="M308.274 447.517H372.257C376.4 447.517 379.757 444.159 379.757 440.017C379.757 435.875 376.4 432.517 372.257 432.517H308.274C304.131 432.517 300.774 435.875 300.774 440.017C300.774 444.159 304.132 447.517 308.274 447.517Z" fill="white"/>
<path d="M308.274 377.323H372.257C376.4 377.323 379.757 373.965 379.757 369.823C379.757 365.681 376.4 362.323 372.257 362.323H308.274C304.131 362.323 300.774 365.681 300.774 369.823C300.774 373.965 304.132 377.323 308.274 377.323Z" fill="white"/>
<path d="M447.512 377.323H461.054C465.197 377.323 468.554 373.965 468.554 369.823C468.554 365.681 465.197 362.323 461.054 362.323H447.512C443.369 362.323 440.012 365.681 440.012 369.823C440.012 373.965 443.37 377.323 447.512 377.323Z" fill="white"/>
<path d="M308.274 292.128C304.131 292.128 300.774 295.486 300.774 299.628C300.774 303.77 304.131 307.128 308.274 307.128H372.257C376.4 307.128 379.757 303.77 379.757 299.628C379.757 295.486 376.4 292.128 372.257 292.128H308.274Z" fill="white"/>
<path d="M461.054 307.128C465.197 307.128 468.554 303.77 468.554 299.628C468.554 295.486 465.197 292.128 461.054 292.128H447.512C443.369 292.128 440.012 295.486 440.012 299.628C440.012 303.77 443.369 307.128 447.512 307.128H461.054Z" fill="white"/>
<path d="M447.512 447.517H461.054C465.197 447.517 468.554 444.159 468.554 440.017C468.554 435.875 465.197 432.517 461.054 432.517H447.512C443.369 432.517 440.012 435.875 440.012 440.017C440.012 444.159 443.37 447.517 447.512 447.517Z" fill="white"/>
<path d="M407.587 377.323H421.129C425.272 377.323 428.629 373.965 428.629 369.823C428.629 365.681 425.272 362.323 421.129 362.323H407.587C403.444 362.323 400.087 365.681 400.087 369.823C400.087 373.965 403.444 377.323 407.587 377.323Z" fill="white"/>
<path d="M421.129 307.128C425.272 307.128 428.629 303.77 428.629 299.628C428.629 295.486 425.272 292.128 421.129 292.128H407.587C403.444 292.128 400.087 295.486 400.087 299.628C400.087 303.77 403.444 307.128 407.587 307.128H421.129Z" fill="white"/>
<path d="M407.587 447.517H421.129C425.272 447.517 428.629 444.159 428.629 440.017C428.629 435.875 425.272 432.517 421.129 432.517H407.587C403.444 432.517 400.087 435.875 400.087 440.017C400.087 444.159 403.444 447.517 407.587 447.517Z" fill="white"/>
</g>
<defs>
<clipPath id="clip0">
<rect width="512" height="512" fill="white"/>
</clipPath>
</defs>
</svg>
