<?xml version="1.0"?>
<svg width="384.65" height="273.64" xmlns="http://www.w3.org/2000/svg" xmlns:svg="http://www.w3.org/2000/svg" data-name="Capa 1">
 <defs>
  <style>.cls-1,.cls-4{fill:none;}.cls-2{clip-path:url(#clip-path);}.cls-3{fill:#fff;}.cls-4{stroke:#004f95;stroke-miterlimit:10;stroke-width:2px;}.cls-5{fill:#b3b3b3;}.cls-6{fill:#004f95;}</style>
  <clipPath id="clip-path" transform="translate(-9.08 -7.12)">
   <rect class="cls-1" height="284" id="svg_1" width="399"/>
  </clipPath>
 </defs>
 <title>logohome</title>
 <g class="layer">
  <title>Layer 1</title>
  <g class="cls-2" id="svg_2">
   <polyline class="cls-3" id="svg_3" points="327.42999267578125,92.37999725341797 302.8299865722656,49.52000045776367 251.92001342773438,50.31999969482422 223.29000854492188,1 174.42999267578125,1.3799999952316284 147.42999267578125,49.380001068115234 96.42999267578125,49.380001068115234 96.02000427246094,49.52000045776367 71.37000274658203,92.47000122070312 96.02000427246094,137.02000427246094 71.37000274658203,180.75999450683594 96.02000427246094,223.7100067138672 146.92999267578125,223.7100067138672 175.55999755859375,272.2300109863281 224.07998657226562,272.6300048828125 224.42999267578125,272.3800048828125 251.92001342773438,223.7100067138672 302.8299865722656,223.7100067138672 327.4800109863281,181.55999755859375 327.6700134277344,181.4499969482422 302.42999267578125,136.3800048828125 327.4700012207031,92.91000366210938 "/>
   <polyline class="cls-4" id="svg_4" points="327.42999267578125,92.37999725341797 302.8299865722656,49.52000045776367 251.92001342773438,50.31999969482422 223.29000854492188,1 174.42999267578125,1.3799999952316284 147.42999267578125,49.380001068115234 96.42999267578125,49.380001068115234 96.02000427246094,49.52000045776367 71.37000274658203,92.47000122070312 96.02000427246094,137.02000427246094 71.37000274658203,180.75999450683594 96.02000427246094,223.7100067138672 146.92999267578125,223.7100067138672 175.55999755859375,272.2300109863281 224.07998657226562,272.6300048828125 224.42999267578125,272.3800048828125 251.92001342773438,223.7100067138672 302.8299865722656,223.7100067138672 327.4800109863281,181.55999755859375 327.6700134277344,181.4499969482422 302.42999267578125,136.3800048828125 327.4700012207031,92.91000366210938 "/>
   <polygon class="cls-5" id="svg_5" points="159.32000732421875,43.630001068115234 179.11000061035156,9.199999809265137 218.82000732421875,9.130000114440918 238.739990234375,43.4900016784668 218.94000244140625,77.91000366210938 179.22999572753906,77.9800033569336 159.32000732421875,43.630001068115234 "/>
   <polygon class="cls-6" id="svg_6" points="159.75,230.24000549316406 179.5399932861328,195.82000732421875 219.25,195.75 239.16000366210938,230.11000061035156 219.3699951171875,264.5299987792969 179.66000366210938,264.6000061035156 159.75,230.24000549316406 "/>
   <polygon class="cls-6" id="svg_7" points="80.20999908447266,92.63999938964844 100,58.220001220703125 139.7100067138672,58.150001525878906 159.6300048828125,92.51000213623047 139.8300018310547,126.93000030517578 100.1199951171875,127 80.20999908447266,92.63999938964844 "/>
   <polygon class="cls-5" id="svg_8" points="80.20999908447266,181.72000122070312 100,147.3000030517578 139.7100067138672,147.22999572753906 159.6300048828125,181.58999633789062 139.8300018310547,216.00999450683594 100.1199951171875,216.0800018310547 80.20999908447266,181.72000122070312 "/>
   <polygon class="cls-6" id="svg_9" points="238.489990234375,92.63999938964844 258.2900085449219,58.220001220703125 298,58.150001525878906 317.9100036621094,92.51000213623047 298.1099853515625,126.93000030517578 258.3999938964844,127 238.489990234375,92.63999938964844 "/>
   <polygon class="cls-5" id="svg_10" points="239.27999877929688,181.72000122070312 259.0799865722656,147.3000030517578 298.7900085449219,147.22999572753906 318.70001220703125,181.58999633789062 298.9100036621094,216.00999450683594 259.20001220703125,216.0800018310547 239.27999877929688,181.72000122070312 "/>
   <path class="cls-5" d="m163.6,132.75l-4.45,-2.57a2.2,2.2 0 0 1 -0.8,-3l41.94,-72.65a2.2,2.2 0 0 1 3,-0.8l4.45,2.57a2.2,2.2 0 0 1 0.81,3l-41.94,72.65a2.2,2.2 0 0 1 -3,0.81" id="svg_11" transform="translate(-9.08 -7.12)"/>
   <path class="cls-6" d="m177,177.13l-4.45,2.57a2.2,2.2 0 0 1 -3,-0.81l-41.94,-72.65a2.2,2.2 0 0 1 0.8,-3l4.45,-2.57a2.2,2.2 0 0 1 3,0.81l41.94,72.65a2.2,2.2 0 0 1 -0.81,3" id="svg_12" transform="translate(-9.08 -7.12)"/>
   <path class="cls-5" d="m224,186.51l0,5.14a2.2,2.2 0 0 1 -2.2,2.2l-83.88,0a2.2,2.2 0 0 1 -2.2,-2.2l0,-5.14a2.2,2.2 0 0 1 2.2,-2.2l83.89,0a2.2,2.2 0 0 1 2.2,2.2" id="svg_13" transform="translate(-9.08 -7.12)"/>
   <path class="cls-6" d="m213.95,232.2l-4.45,-2.57a2.2,2.2 0 0 1 -0.8,-3l41.93,-72.63a2.2,2.2 0 0 1 3,-0.8l4.45,2.57a2.2,2.2 0 0 1 0.81,3l-41.89,72.63a2.2,2.2 0 0 1 -3,0.81" id="svg_14" transform="translate(-9.08 -7.12)"/>
   <path class="cls-5" d="m288.31,184.29l-4.45,2.57a2.2,2.2 0 0 1 -3,-0.81l-41.94,-72.65a2.2,2.2 0 0 1 0.81,-3l4.45,-2.57a2.2,2.2 0 0 1 3,0.81l41.94,72.65a2.2,2.2 0 0 1 -0.81,3" id="svg_15" transform="translate(-9.08 -7.12)"/>
   <path class="cls-6" d="m281.28,97.43l0,5.14a2.2,2.2 0 0 1 -2.2,2.2l-83.89,0a2.2,2.2 0 0 1 -2.2,-2.2l0,-5.14a2.2,2.2 0 0 1 2.2,-2.2l83.89,0a2.2,2.2 0 0 1 2.2,2.2" id="svg_16" transform="translate(-9.08 -7.12)"/>
  </g>
 </g>
</svg>