<?xml version="1.0" standalone="no"?>
<!DOCTYPE svg PUBLIC "-//W3C//DTD SVG 20010904//EN"
 "http://www.w3.org/TR/2001/REC-SVG-20010904/DTD/svg10.dtd">
<svg version="1.0" xmlns="http://www.w3.org/2000/svg"
 width="689.000000pt" height="360.000000pt" viewBox="0 0 689.000000 360.000000"
 preserveAspectRatio="xMidYMid meet">

<g transform="translate(0.000000,360.000000) scale(0.100000,-0.100000)"
fill="#000000" stroke="none">
<path d="M0 1800 l0 -1800 3445 0 3445 0 0 1800 0 1800 -3445 0 -3445 0 0
-1800z m2947 604 c127 -33 203 -112 203 -214 -1 -90 -69 -179 -168 -217 l-44
-17 46 -23 c27 -14 57 -40 72 -63 47 -71 45 -196 -4 -269 -61 -90 -170 -142
-352 -168 -102 -14 -145 -15 -271 -7 -82 6 -152 13 -155 16 -3 3 18 111 46
240 29 128 65 292 81 363 49 225 77 347 83 352 25 25 369 30 463 7z m1010 -18
c45 -15 84 -30 87 -34 3 -4 -10 -45 -27 -90 -23 -60 -36 -81 -47 -78 -8 3 -35
13 -60 22 -70 28 -202 26 -260 -4 -112 -59 -188 -181 -197 -320 -6 -94 8 -150
49 -198 53 -61 98 -77 198 -72 74 3 94 8 143 36 31 18 57 29 57 25 0 -5 -11
-53 -23 -108 l-23 -99 -55 -19 c-30 -11 -91 -22 -136 -24 -288 -19 -462 135
-463 410 0 279 157 503 401 572 84 23 253 15 356 -19z m615 23 c113 -24 197
-90 219 -174 6 -22 9 -71 7 -110 -9 -135 -90 -248 -221 -310 -87 -42 -152 -55
-268 -55 -49 0 -89 -2 -89 -5 0 -6 -60 -277 -66 -297 -5 -16 -19 -18 -120 -18
-63 0 -114 4 -114 8 0 7 113 519 180 816 16 70 31 131 34 134 22 21 348 30
438 11z m860 -256 c137 -137 248 -253 248 -258 0 -6 -158 -168 -351 -360
l-351 -348 -50 53 -51 52 297 297 c163 163 296 301 296 306 0 5 -88 98 -196
206 l-196 197 48 51 c26 28 51 51 53 51 3 0 117 -111 253 -247z m-3681 -80
c93 -93 169 -173 169 -178 0 -6 -124 -134 -275 -285 l-275 -275 -52 53 -53 52
223 223 c122 122 222 227 222 232 0 6 -54 64 -120 130 l-120 120 47 47 c26 27
51 48 56 48 5 0 85 -75 178 -167z"/>
<path d="M2708 2253 c-18 -3 -30 -12 -33 -26 -3 -12 -13 -61 -24 -109 l-19
-88 79 0 c65 0 89 5 128 24 88 45 105 137 34 179 -33 19 -116 29 -165 20z"/>
<path d="M2567 1742 c-15 -71 -27 -134 -27 -142 0 -20 155 -7 211 17 97 43
130 138 72 203 -32 35 -79 49 -168 50 l-60 0 -28 -128z"/>
<path d="M4353 2254 c-18 -4 -25 -18 -38 -82 -10 -42 -23 -102 -31 -133 -20
-83 -19 -97 13 -105 43 -11 150 11 192 40 52 37 81 92 81 156 0 62 -11 85 -50
105 -31 16 -129 27 -167 19z"/>
</g>
</svg>
