<svg xmlns="http://www.w3.org/2000/svg" viewBox="0 0 373.51 395.54"><defs><style>.cls-1{font-size:41px;}.cls-1,.cls-2,.cls-4{fill:#fff;}.cls-1,.cls-2{font-family:CaviarDreams-Bold, Caviar Dreams;font-weight:700;}.cls-2{font-size:36.49px;}.cls-3{fill:none;stroke:#fcfcfc;stroke-miterlimit:10;stroke-width:2px;}</style></defs><title>Recurso 2</title><g id="Capa_2" data-name="Capa 2"><g id="Capa_1-2" data-name="Capa 1"><text class="cls-1" transform="translate(254.65 379.07)">255</text><text class="cls-2" transform="translate(165.15 210.82)">[A]</text><polyline class="cls-3" points="222.21 394.48 151.97 393.9 110.53 323.67 36.84 323.67 1.15 261.5 36.84 198.18 1.15 133.7 36.65 72 36.84 72.06 110.53 72.16 110.65 72 151.65 1 151.65 1 221.05 1.3 221.05 1.3 262.5 72.68 335.65 72 371.88 134.85 371.65 135 335.65 197 372.15 262.5 371.88 262.65 336.19 323.67 262.5 323.67 222.2 395.05"/><path class="cls-4" d="M209,260.94v4.57a4.62,4.62,0,0,1-4.62,4.62H85.79a4.62,4.62,0,0,1-4.62-4.62v-4.57a4.62,4.62,0,0,1,4.62-4.62H204.34a4.62,4.62,0,0,1,4.62,4.62"/><polygon class="cls-4" points="128.46 62.99 157.11 13.17 214.59 13.07 243.42 62.8 214.76 112.63 157.28 112.72 128.46 62.99"/><polygon class="cls-4" points="129.08 333.12 157.73 283.29 215.21 283.19 244.04 332.93 215.38 382.75 157.9 382.85 129.08 333.12"/><polygon class="cls-4" points="13.95 133.94 42.6 84.11 100.08 84.02 128.9 133.75 100.25 183.57 42.77 183.67 13.95 133.94"/><polygon class="cls-4" points="13.95 262.89 42.6 213.06 100.08 212.96 128.9 262.69 100.25 312.52 42.77 312.62 13.95 262.89"/><polygon class="cls-4" points="243.06 133.94 271.71 84.11 329.19 84.02 358.02 133.75 329.36 183.57 271.88 183.67 243.06 133.94"/><polygon class="cls-4" points="244.21 262.89 272.87 213.06 330.35 212.96 359.17 262.69 330.51 312.52 273.03 312.62 244.21 262.89"/><path class="cls-4" d="M120.28,181l-4-2.29a4.62,4.62,0,0,1-1.69-6.31L173.9,69.7A4.62,4.62,0,0,1,180.22,68l4,2.29a4.62,4.62,0,0,1,1.69,6.31L126.59,179.28a4.62,4.62,0,0,1-6.31,1.69"/><path class="cls-4" d="M139.62,246.65l-4,2.29a4.62,4.62,0,0,1-6.31-1.69L70.07,144.58a4.62,4.62,0,0,1,1.69-6.31l4-2.29A4.62,4.62,0,0,1,82,137.67l59.28,102.67a4.62,4.62,0,0,1-1.69,6.31"/><path class="cls-4" d="M193.15,324.92l-4-2.29a4.62,4.62,0,0,1-1.69-6.31l59.28-102.67a4.62,4.62,0,0,1,6.31-1.69l4,2.29a4.62,4.62,0,0,1,1.69,6.31L199.47,323.23a4.62,4.62,0,0,1-6.31,1.69"/><path class="cls-4" d="M300.8,257l-4,2.29a4.62,4.62,0,0,1-6.31-1.69L231.25,154.94a4.62,4.62,0,0,1,1.69-6.31l4-2.29a4.62,4.62,0,0,1,6.31,1.69L302.49,250.7A4.62,4.62,0,0,1,300.8,257"/></g></g></svg>