<svg id="Capa_1" data-name="Capa 1" xmlns="http://www.w3.org/2000/svg" xmlns:xlink="http://www.w3.org/1999/xlink" viewBox="0 0 384.65 273.64"><defs><style>.cls-1,.cls-4{fill:none;}.cls-2{clip-path:url(#clip-path);}.cls-3{fill:#fff;}.cls-4{stroke:#004f95;stroke-miterlimit:10;stroke-width:2px;}.cls-5{fill:#b3b3b3;}.cls-6{fill:#004f95;}</style><clipPath id="clip-path" transform="translate(-9.08 -7.12)"><rect class="cls-1" width="399" height="284"/></clipPath></defs><title>logohome</title><g class="cls-2"><polyline class="cls-3" points="372.43 92.38 347.83 49.52 296.92 50.32 268.29 1 219.43 1.38 192.43 49.38 141.43 49.38 141.02 49.52 116.37 92.47 141.02 137.02 116.37 180.76 141.02 223.71 191.93 223.71 220.56 272.23 269.08 272.63 269.43 272.38 296.92 223.71 347.83 223.71 372.48 181.56 372.67 181.45 347.43 136.38 372.47 92.91"/><polyline class="cls-4" points="372.43 92.38 347.83 49.52 296.92 50.32 268.29 1 219.43 1.38 192.43 49.38 141.43 49.38 141.02 49.52 116.37 92.47 141.02 137.02 116.37 180.76 141.02 223.71 191.93 223.71 220.56 272.23 269.08 272.63 269.43 272.38 296.92 223.71 347.83 223.71 372.48 181.56 372.67 181.45 347.43 136.38 372.47 92.91"/><polygon class="cls-5" points="204.32 43.63 224.11 9.2 263.82 9.13 283.74 43.49 263.94 77.91 224.23 77.98 204.32 43.63"/><polygon class="cls-6" points="204.75 230.24 224.54 195.82 264.25 195.75 284.16 230.11 264.37 264.53 224.66 264.6 204.75 230.24"/><polygon class="cls-6" points="125.21 92.64 145 58.22 184.71 58.15 204.63 92.51 184.83 126.93 145.12 127 125.21 92.64"/><polygon class="cls-5" points="125.21 181.72 145 147.3 184.71 147.23 204.63 181.59 184.83 216.01 145.12 216.08 125.21 181.72"/><polygon class="cls-6" points="283.49 92.64 303.29 58.22 343 58.15 362.91 92.51 343.11 126.93 303.4 127 283.49 92.64"/><polygon class="cls-5" points="284.28 181.72 304.08 147.3 343.79 147.23 363.7 181.59 343.91 216.01 304.2 216.08 284.28 181.72"/><path class="cls-5" d="M208.6,132.75l-4.45-2.57a2.2,2.2,0,0,1-.8-3l41.94-72.65a2.2,2.2,0,0,1,3-.8l4.45,2.57a2.2,2.2,0,0,1,.81,3l-41.94,72.65a2.2,2.2,0,0,1-3,.81" transform="translate(-9.08 -7.12)"/><path class="cls-6" d="M222,177.13l-4.45,2.57a2.2,2.2,0,0,1-3-.81l-41.94-72.65a2.2,2.2,0,0,1,.8-3l4.45-2.57a2.2,2.2,0,0,1,3,.81l41.94,72.65a2.2,2.2,0,0,1-.81,3" transform="translate(-9.08 -7.12)"/><path class="cls-5" d="M269,186.51v5.14a2.2,2.2,0,0,1-2.2,2.2H182.92a2.2,2.2,0,0,1-2.2-2.2v-5.14a2.2,2.2,0,0,1,2.2-2.2h83.89a2.2,2.2,0,0,1,2.2,2.2" transform="translate(-9.08 -7.12)"/><path class="cls-6" d="M258.95,232.2l-4.45-2.57a2.2,2.2,0,0,1-.8-3L295.63,154a2.2,2.2,0,0,1,3-.8l4.45,2.57a2.2,2.2,0,0,1,.81,3L262,231.4a2.2,2.2,0,0,1-3,.81" transform="translate(-9.08 -7.12)"/><path class="cls-5" d="M333.31,184.29l-4.45,2.57a2.2,2.2,0,0,1-3-.81l-41.94-72.65a2.2,2.2,0,0,1,.81-3l4.45-2.57a2.2,2.2,0,0,1,3,.81l41.94,72.65a2.2,2.2,0,0,1-.81,3" transform="translate(-9.08 -7.12)"/><path class="cls-6" d="M326.28,97.43v5.14a2.2,2.2,0,0,1-2.2,2.2H240.19a2.2,2.2,0,0,1-2.2-2.2V97.43a2.2,2.2,0,0,1,2.2-2.2h83.89a2.2,2.2,0,0,1,2.2,2.2" transform="translate(-9.08 -7.12)"/></g><path class="cls-6" d="M310.94,257.85l3.8-2.84a20.16,20.16,0,0,0,2.81-2.53,4.35,4.35,0,0,0,1.24-3,4,4,0,0,0-6.79-2.82,5.62,5.62,0,0,0-1.24,3.45l-2.83-1a7.82,7.82,0,0,1,2-4.46,6.85,6.85,0,0,1,11.7,4.85,7,7,0,0,1-1.94,4.91,21.37,21.37,0,0,1-2.86,2.55l-3.63,2.73a4.66,4.66,0,0,0-2,2.24h10.39v2.84H307.94Q308.71,259.52,310.94,257.85Z" transform="translate(-9.08 -7.12)"/><path class="cls-6" d="M329.89,248.78a7.62,7.62,0,0,1,1.6-.16,8.84,8.84,0,0,1,2.94.49,8.1,8.1,0,0,1,4.7,4,7.75,7.75,0,0,1,1,3.72,8,8,0,0,1-.37,2.38,8,8,0,0,1-7.56,5.69,8.17,8.17,0,0,1-2.43-.38,8.59,8.59,0,0,1-4.4-3.31l2-2.21a6.37,6.37,0,0,0,3.25,2.76,5.2,5.2,0,0,0,1.54.25,5,5,0,0,0,2.35-.6,4.92,4.92,0,0,0,2.49-3,5.11,5.11,0,0,0,.25-1.54,5,5,0,0,0-.62-2.35,5.34,5.34,0,0,0-3.06-2.6,5.86,5.86,0,0,0-2-.31,13,13,0,0,0-3.75.72l-1.71-1.49,2.46-6.79v-1.11h8v2.83H331Z" transform="translate(-9.08 -7.12)"/><path class="cls-6" d="M347.85,248.78a7.62,7.62,0,0,1,1.6-.16,8.84,8.84,0,0,1,2.94.49,8.1,8.1,0,0,1,4.7,4,7.75,7.75,0,0,1,1,3.72,8,8,0,0,1-.37,2.38,8,8,0,0,1-7.56,5.69,8.17,8.17,0,0,1-2.43-.38,8.59,8.59,0,0,1-4.4-3.31l2-2.21a6.37,6.37,0,0,0,3.25,2.76,5.2,5.2,0,0,0,1.54.25,5,5,0,0,0,2.35-.6,4.92,4.92,0,0,0,2.49-3,5.11,5.11,0,0,0,.25-1.54,5,5,0,0,0-.62-2.35,5.34,5.34,0,0,0-3.06-2.6,5.86,5.86,0,0,0-2-.31,13,13,0,0,0-3.75.72l-1.71-1.49,2.46-6.79v-1.11h8v2.83h-5.62Z" transform="translate(-9.08 -7.12)"/><path class="cls-6" d="M33.52,131.27,43,157.37H39.43l-3.36-9.23H29.15l-3.34,9.23H22.2l9.49-26.1Zm1.32,13.49-2.23-6.12-2.22,6.12Z" transform="translate(-9.08 -7.12)"/><path class="cls-6" d="M58.84,131.27v3.38H49.66v8h9.18V146H49.66v11.37H46.28v-26.1Z" transform="translate(-9.08 -7.12)"/><path class="cls-6" d="M85.72,134.84a13.36,13.36,0,1,1-18.89,18.89,13.36,13.36,0,1,1,18.89-18.89Zm-9.44-.51a9.94,9.94,0,1,0,7,2.91A9.59,9.59,0,0,0,76.28,134.34Z" transform="translate(-9.08 -7.12)"/><path class="cls-6" d="M100.6,149H97.52v8.35H94.14v-26.1h7.41a9,9,0,0,1,5.32,2.59,8.9,8.9,0,0,1,0,12.56,7.34,7.34,0,0,1-2.74,2l5.79,8.92h-4.09Zm-3.08-14.35v11h3.08a5.48,5.48,0,0,0,0-11Z" transform="translate(-9.08 -7.12)"/><path class="cls-6" d="M135.64,134.84a13.35,13.35,0,1,1-9.44-3.92A12.87,12.87,0,0,1,135.64,134.84Zm-9.44-.51a9.94,9.94,0,1,0,7,2.91A9.59,9.59,0,0,0,126.19,134.34Z" transform="translate(-9.08 -7.12)"/><path class="cls-6" d="M239.27,152.69h2.12v2.17H237.1V134.5h4.29v2.17h-2.12Z" transform="translate(-9.08 -7.12)"/><path class="cls-6" d="M250.5,134.46l6.1,16.78h-2.31l-2.16-5.94h-4.45l-2.15,5.94h-2.32l6.1-16.78Zm.85,8.67-1.44-3.93-1.43,3.93Z" transform="translate(-9.08 -7.12)"/><path class="cls-6" d="M260.55,136.67h-2.12V134.5h4.29v20.35h-4.29v-2.17h2.12Z" transform="translate(-9.08 -7.12)"/><path class="cls-5" d="M14.86,164.39h5.65v5.79H9.08V115.91H20.51v5.79H14.86Z" transform="translate(-9.08 -7.12)"/><path class="cls-5" d="M387.94,121.41h-5.65v-5.79h11.44V169.9H382.29v-5.79h5.65Z" transform="translate(-9.08 -7.12)"/></svg>