<svg width="512" height="512" viewBox="0 0 512 512" fill="none" xmlns="http://www.w3.org/2000/svg">
<path d="M256 386C250.48 386 246 390.48 246 396C246 401.52 250.48 406 256 406C261.52 406 266 401.52 266 396C266 390.48 261.52 386 256 386Z" fill="white"/>
<path d="M469.087 61.37C444.479 51.459 412.485 46 379 46C345.515 46 313.521 51.459 288.913 61.37C274.371 67.227 263.268 74.385 256 82.417C248.732 74.385 237.629 67.228 223.087 61.371C198.479 51.459 166.485 46 133 46C99.515 46 67.521 51.459 42.913 61.37C15.24 72.516 0 88.366 0 106V346C0 363.634 15.24 379.484 42.913 390.63C65.8 399.848 95.078 405.208 126 405.914V406C126 440.206 181.888 466 256 466C330.112 466 386 440.206 386 406V405.914C416.922 405.208 446.2 399.848 469.087 390.63C496.76 379.484 512 363.634 512 346V106C512 88.366 496.76 72.516 469.087 61.37ZM492 286C492 294.537 480.357 304.529 461.615 312.078C441.33 320.248 414.096 325.191 386 325.901V286C386 285.971 385.998 285.942 385.998 285.914C416.921 285.209 446.199 279.849 469.088 270.63C478.071 267.012 485.734 262.896 492.001 258.386L492 286ZM246 166C246 174.537 234.357 184.529 215.615 192.078C193.648 200.926 163.536 206 133 206C102.464 206 72.352 200.926 50.385 192.078C31.643 184.529 20 174.537 20 166V138.386C26.267 142.896 33.93 147.012 42.913 150.63C67.521 160.541 99.515 166 133 166C166.485 166 198.479 160.541 223.087 150.63C232.07 147.012 239.733 142.896 246 138.386V166ZM42.913 210.63C67.521 220.541 99.515 226 133 226C166.485 226 198.479 220.541 223.087 210.63C232.07 207.012 239.733 202.896 246 198.386V226.177C220.13 227.053 195.32 231.299 175.253 238.366C155.126 245.455 140.643 254.908 132.767 265.997C102.311 265.971 72.296 260.903 50.385 252.078C31.643 244.529 20 234.537 20 226V198.386C26.267 202.896 33.93 207.012 42.913 210.63ZM20 258.386C26.267 262.896 33.93 267.012 42.913 270.63C65.801 279.848 95.08 285.208 126.003 285.914C126.003 285.943 126.001 285.972 126.001 286V325.901C97.904 325.191 70.671 320.248 50.386 312.078C31.643 304.529 20 294.537 20 286V258.386ZM147.058 281.087C154.469 263.84 197.244 246 256 246C314.756 246 357.531 263.84 364.934 281.067C365.652 282.748 366 284.361 366 286C366 294.792 355.161 304.558 337.005 312.123C315.529 321.072 286.761 326 256 326C225.239 326 196.471 321.072 174.995 312.123C156.839 304.558 146 294.792 146 286C146 284.361 146.349 282.748 147.058 281.087ZM492 226C492 234.537 480.357 244.529 461.615 252.078C439.705 260.903 409.691 265.971 379.236 265.997C371.366 254.914 356.881 245.457 336.747 238.366C316.68 231.298 291.87 227.053 266 226.177V198.386C272.267 202.896 279.93 207.012 288.913 210.63C313.521 220.541 345.515 226 379 226C412.485 226 444.479 220.541 469.087 210.63C478.07 207.012 485.733 202.896 492 198.386V226ZM492 166C492 174.537 480.357 184.529 461.615 192.078C439.648 200.926 409.536 206 379 206C348.464 206 318.352 200.926 296.385 192.078C277.643 184.529 266 174.537 266 166V138.386C272.267 142.896 279.93 147.012 288.913 150.63C313.521 160.541 345.515 166 379 166C412.485 166 444.479 160.541 469.087 150.63C478.07 147.012 485.733 142.896 492 138.386V166ZM296.385 79.922C318.352 71.074 348.464 66 379 66C409.536 66 439.648 71.074 461.615 79.922C480.357 87.471 492 97.463 492 106C492 114.537 480.357 124.529 461.615 132.078C439.648 140.926 409.536 146 379 146C348.464 146 318.352 140.926 296.385 132.078C277.643 124.529 266 114.537 266 106C266 97.463 277.643 87.471 296.385 79.922ZM50.385 79.922C72.352 71.074 102.464 66 133 66C163.536 66 193.648 71.074 215.615 79.922C234.357 87.471 246 97.463 246 106C246 114.537 234.357 124.529 215.615 132.078C193.648 140.926 163.536 146 133 146C102.464 146 72.352 140.926 50.385 132.078C31.643 124.529 20 114.537 20 106C20 97.463 31.643 87.471 50.385 79.922ZM50.385 372.078C31.643 364.529 20 354.537 20 346V318.386C26.267 322.896 33.93 327.012 42.913 330.63C65.8 339.848 95.078 345.208 126 345.914V385.902C97.903 385.191 70.67 380.249 50.385 372.078ZM337.005 432.123C315.529 441.072 286.761 446 256 446C225.239 446 196.471 441.072 174.995 432.123C156.839 424.558 146 414.792 146 406V378.969C148.265 380.608 150.768 382.237 153.544 383.843C169.073 392.829 190.202 399.476 214.648 403.064C215.141 403.136 215.629 403.171 216.113 403.171C220.993 403.171 225.264 399.594 225.994 394.622C226.796 389.158 223.016 384.078 217.553 383.276C171.078 376.453 146 358.979 146 346V318.88C168.634 335.442 208.587 346 256 346C303.413 346 343.366 335.442 366 318.88V346C366 358.979 340.922 376.453 294.447 383.276C288.983 384.078 285.203 389.158 286.006 394.622C286.736 399.595 291.007 403.171 295.887 403.171C296.37 403.171 296.86 403.136 297.352 403.064C321.797 399.476 342.926 392.83 358.456 383.843C361.231 382.237 363.735 380.608 366 378.969V406C366 414.792 355.161 424.558 337.005 432.123ZM461.615 372.078C441.33 380.248 414.096 385.191 386 385.901V345.913C416.922 345.207 446.2 339.847 469.087 330.629C478.07 327.011 485.733 322.895 492 318.385V346C492 354.537 480.357 364.529 461.615 372.078Z" fill="white"/>
</svg>
